<svg version="1.1" xmlns="http://www.w3.org/2000/svg" xmlns:xlink="http://www.w3.org/1999/xlink" width="128px" height="128px" viewBox="0,0,256,256"><g fill="#ffffff" fill-rule="nonzero" stroke="none" stroke-width="1" stroke-linecap="butt" stroke-linejoin="miter" stroke-miterlimit="10" stroke-dasharray="" stroke-dashoffset="0" font-family="none" font-weight="none" font-size="none" text-anchor="none" style="mix-blend-mode: normal"><g transform="translate(-0.02,-0.0007) scale(2,2)"><path d="M113,0h-98c-8.28427,0 -15,6.71573 -15,15v64.57c0,8.28427 6.71573,15 15,15h23.28c0.55228,0 1,0.44772 1,1v25.43c-0.0002,2.83139 1.70529,5.38408 4.32115,6.46763c2.61585,1.08355 5.62686,0.48457 7.62885,-1.51763l31.08,-31.08c0.18872,-0.18719 0.4442,-0.29154 0.71,-0.29h30c8.28427,0 15,-6.71573 15,-15v-64.58c0,-3.98171 -1.58309,-7.80006 -4.40047,-10.61368c-2.81737,-2.81362 -6.63782,-4.39163 -10.61953,-4.38632zM122,79.57c0,4.97056 -4.02944,9 -9,9h-30c-1.84942,-0.01343 -3.629,0.70559 -4.95,2l-31.05,31.13c-0.28609,0.28846 -0.71827,0.37516 -1.09348,0.21937c-0.37521,-0.15579 -0.61888,-0.52311 -0.61652,-0.92937v-25.42c0,-3.86599 -3.13401,-7 -7,-7h-23.29c-4.97056,0 -9,-4.02944 -9,-9v-64.57c0,-4.97056 4.02944,-9 9,-9h98c4.97056,0 9,4.02944 9,9z"></path></g></g></svg>